# xmcd CD database file
#
# Track frame offsets:
#	182
#	16607
#	31952
#	46862
#	62392
#	76607
#	91265
#	106622
#	116397
#	130342
#	143057
#	156975
#	172532
#	185687
#	199607
#	219842
#	237122
#	251207
#	262850
#	276982
#
# Disc length: 3882 seconds
#
# Revision: 8
# Processed by: cddbd v1.5.2PL0 Copyright (c) Steve Scherf et al.
# Submitted via: CDex 1.51
#
DISCID=f20f2814
DTITLE=Various Artist - The History of Jazz ~ The Very Best of Swing, Bebop, Cool and Fusion  [CD 2-5]
DYEAR=2007
DGENRE=Jazz
TTITLE0=Glenn Miller and His Orchestra - In the Mood  (Garland - Razaf)
TTITLE1=Glenn Miller and His Orchestra - Moonlight Serenade  (Parish - Miller)
TTITLE2=Glenn Miller and His Orchestra - Pennsylvania 6-5000  (Gray - Sigman)
TTITLE3=Glenn Miller and His Orchestra - Chattanooga Choo Choo  (Gordon - Warren)
TTITLE4=Benny Goodman and His Orchestra - King Porter Stomp  (Morton)
TTITLE5=Benny Goodman and His Orchestra - Stompin' At the Savoy  (Goodman - Webb - Sampson)
TTITLE6=Benny Goodman and His Orchestra - St. Louis Blues  (Handy)
TTITLE7=Benny Goodman and His Orchestra - Alexander's Ragtime Band  (Berlin)
TTITLE8=Count Basie and His Orchestra - One O'Clock Jump  (Basie)
TTITLE9=Count Basie and His Orchestra - Taxi War Dance  (Basie - Young)
TTITLE10=Count Basie and His Orchestra - Twelfth Street Rag  (Sumner - Bowman)
TTITLE11=Count Basie and His Orchestra - Super Chief  (Mundy - Basie)
TTITLE12=Duke Ellington and His Orchestra - Cotton Club Stomp  (Hodges - Ellington)
TTITLE13=Duke Ellington and His Orchestra - Mood Indigo  (Elligton - Mills)
TTITLE14=Duke Ellington and His Orchestra - Take the ''A'' Train  Strayhorn)
TTITLE15=Duke Ellington and His Orchestra - The Mooche  (Elligton - Mills)
TTITLE16=Tommy Dorsey and His Orchestra - Song Of India  (Rimsky-Korsakov)
TTITLE17=Tommy Dorsey and His Orchestra - Night And Day  (Porter)
TTITLE18=Tommy Dorsey and His Orchestra - Smoke Gets In Your Eyes  (Harbach - Jerom - Kern)
TTITLE19=Tommy Dorsey and His Orchestra - Boogie Woogie  (Smith)
EXTD=726 YEAR: 2007
EXTT0=
EXTT1=
EXTT2=
EXTT3=
EXTT4=
EXTT5=
EXTT6=
EXTT7=
EXTT8=
EXTT9=
EXTT10=
EXTT11=
EXTT12=
EXTT13=
EXTT14=
EXTT15=
EXTT16=
EXTT17=
EXTT18=
EXTT19=
PLAYORDER=
